<mxfile host="Electron" modified="2024-02-07T00:35:52.584Z" agent="Mozilla/5.0 (Macintosh; Intel Mac OS X 10_15_7) AppleWebKit/537.36 (KHTML, like Gecko) draw.io/23.0.2 Chrome/120.0.6099.109 Electron/28.1.0 Safari/537.36" etag="Pdr8T3k37vikaEQZFEe6" version="23.0.2" type="device">
  <diagram id="R2lEEEUBdFMjLlhIrx00" name="Page-1">
    <mxGraphModel dx="1393" dy="1098" grid="1" gridSize="10" guides="1" tooltips="1" connect="1" arrows="1" fold="1" page="1" pageScale="1" pageWidth="850" pageHeight="1100" math="0" shadow="0" extFonts="Permanent Marker^https://fonts.googleapis.com/css?family=Permanent+Marker">
      <root>
        <mxCell id="0" />
        <mxCell id="1" parent="0" />
        <mxCell id="TfP4_uzhoSNBbey_fxV2-175" value="" style="rounded=0;whiteSpace=wrap;html=1;strokeColor=none;fillColor=#fa6800;fontColor=#000000;opacity=20;fillStyle=hatch;strokeWidth=6;" vertex="1" parent="1">
          <mxGeometry y="220" width="220" height="140" as="geometry" />
        </mxCell>
        <mxCell id="TfP4_uzhoSNBbey_fxV2-49" value="" style="group;strokeColor=default;strokeWidth=2;" vertex="1" connectable="0" parent="1">
          <mxGeometry x="10" y="220" width="200" height="110" as="geometry" />
        </mxCell>
        <mxCell id="TfP4_uzhoSNBbey_fxV2-50" value="item_aliases.csv" style="shape=table;startSize=30;container=1;collapsible=1;childLayout=tableLayout;fixedRows=1;rowLines=0;fontStyle=1;align=center;resizeLast=1;" vertex="1" parent="TfP4_uzhoSNBbey_fxV2-49">
          <mxGeometry width="200" height="90" as="geometry">
            <mxRectangle width="90" height="30" as="alternateBounds" />
          </mxGeometry>
        </mxCell>
        <mxCell id="TfP4_uzhoSNBbey_fxV2-51" value="" style="shape=partialRectangle;collapsible=0;dropTarget=0;pointerEvents=0;fillColor=none;points=[[0,0.5],[1,0.5]];portConstraint=eastwest;top=0;left=0;right=0;bottom=1;" vertex="1" parent="TfP4_uzhoSNBbey_fxV2-50">
          <mxGeometry y="30" width="200" height="30" as="geometry" />
        </mxCell>
        <mxCell id="TfP4_uzhoSNBbey_fxV2-52" value="PK" style="shape=partialRectangle;overflow=hidden;connectable=0;fillColor=none;top=0;left=0;bottom=0;right=0;fontStyle=1;" vertex="1" parent="TfP4_uzhoSNBbey_fxV2-51">
          <mxGeometry width="30" height="30" as="geometry">
            <mxRectangle width="30" height="30" as="alternateBounds" />
          </mxGeometry>
        </mxCell>
        <mxCell id="TfP4_uzhoSNBbey_fxV2-53" value="item_id int NOT NULL" style="shape=partialRectangle;overflow=hidden;connectable=0;fillColor=#60a917;top=0;left=0;bottom=0;right=0;align=left;spacingLeft=6;fontStyle=5;fontColor=#ffffff;strokeColor=#2D7600;" vertex="1" parent="TfP4_uzhoSNBbey_fxV2-51">
          <mxGeometry x="30" width="170" height="30" as="geometry">
            <mxRectangle width="170" height="30" as="alternateBounds" />
          </mxGeometry>
        </mxCell>
        <mxCell id="TfP4_uzhoSNBbey_fxV2-54" value="" style="shape=partialRectangle;collapsible=0;dropTarget=0;pointerEvents=0;fillColor=none;points=[[0,0.5],[1,0.5]];portConstraint=eastwest;top=0;left=0;right=0;bottom=0;" vertex="1" parent="TfP4_uzhoSNBbey_fxV2-50">
          <mxGeometry y="60" width="200" height="30" as="geometry" />
        </mxCell>
        <mxCell id="TfP4_uzhoSNBbey_fxV2-55" value="" style="shape=partialRectangle;overflow=hidden;connectable=0;fillColor=none;top=0;left=0;bottom=0;right=0;" vertex="1" parent="TfP4_uzhoSNBbey_fxV2-54">
          <mxGeometry width="30" height="30" as="geometry">
            <mxRectangle width="30" height="30" as="alternateBounds" />
          </mxGeometry>
        </mxCell>
        <mxCell id="TfP4_uzhoSNBbey_fxV2-56" value="en_alias string" style="shape=partialRectangle;overflow=hidden;connectable=0;fillColor=none;top=0;left=0;bottom=1;right=0;align=left;spacingLeft=6;" vertex="1" parent="TfP4_uzhoSNBbey_fxV2-54">
          <mxGeometry x="30" width="170" height="30" as="geometry">
            <mxRectangle width="170" height="30" as="alternateBounds" />
          </mxGeometry>
        </mxCell>
        <mxCell id="TfP4_uzhoSNBbey_fxV2-119" value="Total: 6,823,025" style="text;html=1;strokeColor=none;fillColor=none;align=left;verticalAlign=middle;whiteSpace=wrap;rounded=0;fontSize=10;fontStyle=2" vertex="1" parent="TfP4_uzhoSNBbey_fxV2-49">
          <mxGeometry y="90.00428571428571" width="83.80952380952381" height="15.714285714285714" as="geometry" />
        </mxCell>
        <mxCell id="TfP4_uzhoSNBbey_fxV2-163" value="" style="rounded=0;whiteSpace=wrap;html=1;strokeColor=none;fillColor=#fa6800;fontColor=#000000;opacity=20;fillStyle=hatch;strokeWidth=6;" vertex="1" parent="1">
          <mxGeometry width="580" height="210" as="geometry" />
        </mxCell>
        <mxCell id="TfP4_uzhoSNBbey_fxV2-161" value="" style="rounded=0;whiteSpace=wrap;html=1;strokeColor=none;fillColor=#e3c800;fontColor=#000000;opacity=20;fillStyle=hatch;strokeWidth=6;" vertex="1" parent="1">
          <mxGeometry x="580" width="270" height="220" as="geometry" />
        </mxCell>
        <mxCell id="TfP4_uzhoSNBbey_fxV2-160" value="" style="rounded=0;whiteSpace=wrap;html=1;strokeColor=none;fillColor=#e3c800;fontColor=#000000;opacity=20;fillStyle=hatch;strokeWidth=6;" vertex="1" parent="1">
          <mxGeometry x="220" y="210" width="630" height="310" as="geometry" />
        </mxCell>
        <mxCell id="TfP4_uzhoSNBbey_fxV2-18" value="" style="group;strokeColor=default;strokeWidth=2;" vertex="1" connectable="0" parent="1">
          <mxGeometry x="310" y="17.65" width="250" height="160" as="geometry" />
        </mxCell>
        <mxCell id="TfP4_uzhoSNBbey_fxV2-8" value="page.csv" style="shape=table;startSize=30;container=1;collapsible=1;childLayout=tableLayout;fixedRows=1;rowLines=0;fontStyle=1;align=center;resizeLast=1;" vertex="1" parent="TfP4_uzhoSNBbey_fxV2-18">
          <mxGeometry y="-8.19" width="250" height="168.19" as="geometry">
            <mxRectangle width="90" height="30" as="alternateBounds" />
          </mxGeometry>
        </mxCell>
        <mxCell id="TfP4_uzhoSNBbey_fxV2-9" value="" style="shape=partialRectangle;collapsible=0;dropTarget=0;pointerEvents=0;fillColor=none;points=[[0,0.5],[1,0.5]];portConstraint=eastwest;top=0;left=0;right=0;bottom=1;" vertex="1" parent="TfP4_uzhoSNBbey_fxV2-8">
          <mxGeometry y="30" width="250" height="30" as="geometry" />
        </mxCell>
        <mxCell id="TfP4_uzhoSNBbey_fxV2-10" value="PK" style="shape=partialRectangle;overflow=hidden;connectable=0;fillColor=none;top=0;left=0;bottom=0;right=0;fontStyle=1;" vertex="1" parent="TfP4_uzhoSNBbey_fxV2-9">
          <mxGeometry width="30" height="30" as="geometry">
            <mxRectangle width="30" height="30" as="alternateBounds" />
          </mxGeometry>
        </mxCell>
        <mxCell id="TfP4_uzhoSNBbey_fxV2-11" value="page_id int NOT NULL" style="shape=partialRectangle;overflow=hidden;connectable=0;fillColor=#008a00;top=0;left=0;bottom=0;right=0;align=left;spacingLeft=6;fontStyle=5;fontColor=#ffffff;strokeColor=#005700;" vertex="1" parent="TfP4_uzhoSNBbey_fxV2-9">
          <mxGeometry x="30" width="220" height="30" as="geometry">
            <mxRectangle width="220" height="30" as="alternateBounds" />
          </mxGeometry>
        </mxCell>
        <mxCell id="TfP4_uzhoSNBbey_fxV2-12" value="" style="shape=partialRectangle;collapsible=0;dropTarget=0;pointerEvents=0;fillColor=none;points=[[0,0.5],[1,0.5]];portConstraint=eastwest;top=0;left=0;right=0;bottom=0;" vertex="1" parent="TfP4_uzhoSNBbey_fxV2-8">
          <mxGeometry y="60" width="250" height="30" as="geometry" />
        </mxCell>
        <mxCell id="TfP4_uzhoSNBbey_fxV2-13" value="FK1" style="shape=partialRectangle;overflow=hidden;connectable=0;fillColor=none;top=0;left=0;bottom=0;right=0;" vertex="1" parent="TfP4_uzhoSNBbey_fxV2-12">
          <mxGeometry width="30" height="30" as="geometry">
            <mxRectangle width="30" height="30" as="alternateBounds" />
          </mxGeometry>
        </mxCell>
        <mxCell id="TfP4_uzhoSNBbey_fxV2-14" value="item_id int NOT NULL" style="shape=partialRectangle;overflow=hidden;connectable=0;fillColor=#60a917;top=0;left=0;bottom=0;right=0;align=left;spacingLeft=6;fontStyle=5;fontColor=#ffffff;strokeColor=#2D7600;" vertex="1" parent="TfP4_uzhoSNBbey_fxV2-12">
          <mxGeometry x="30" width="220" height="30" as="geometry">
            <mxRectangle width="220" height="30" as="alternateBounds" />
          </mxGeometry>
        </mxCell>
        <mxCell id="TfP4_uzhoSNBbey_fxV2-17" value="" style="group;strokeColor=default;strokeWidth=1;" vertex="1" connectable="0" parent="TfP4_uzhoSNBbey_fxV2-18">
          <mxGeometry x="30" y="82.76" width="220" height="47.24" as="geometry" />
        </mxCell>
        <mxCell id="TfP4_uzhoSNBbey_fxV2-15" value="title string" style="shape=partialRectangle;overflow=hidden;connectable=0;fillColor=none;top=0;left=0;bottom=0;right=0;align=left;spacingLeft=6;labelBorderColor=none;strokeWidth=1;perimeterSpacing=0;" vertex="1" parent="TfP4_uzhoSNBbey_fxV2-17">
          <mxGeometry width="220" height="23.62" as="geometry">
            <mxRectangle width="220" height="30" as="alternateBounds" />
          </mxGeometry>
        </mxCell>
        <mxCell id="TfP4_uzhoSNBbey_fxV2-16" value="views int" style="shape=partialRectangle;overflow=hidden;connectable=0;fillColor=none;top=1;left=1;bottom=0;right=0;align=left;spacingLeft=6;labelBorderColor=none;strokeWidth=1;" vertex="1" parent="TfP4_uzhoSNBbey_fxV2-17">
          <mxGeometry y="23.62" width="220" height="23.62" as="geometry">
            <mxRectangle width="220" height="30" as="alternateBounds" />
          </mxGeometry>
        </mxCell>
        <mxCell id="TfP4_uzhoSNBbey_fxV2-117" value="Total: 5,362,175" style="text;html=1;strokeColor=none;fillColor=none;align=left;verticalAlign=middle;whiteSpace=wrap;rounded=0;fontSize=10;fontStyle=2" vertex="1" parent="TfP4_uzhoSNBbey_fxV2-18">
          <mxGeometry y="140" width="110" height="20" as="geometry" />
        </mxCell>
        <mxCell id="TfP4_uzhoSNBbey_fxV2-129" value="" style="group" vertex="1" connectable="0" parent="1">
          <mxGeometry x="600" y="10" width="250" height="110" as="geometry" />
        </mxCell>
        <mxCell id="TfP4_uzhoSNBbey_fxV2-1" value="link_annotated_texts.json" style="shape=table;startSize=30;container=1;collapsible=1;childLayout=tableLayout;fixedRows=1;rowLines=0;fontStyle=1;align=center;resizeLast=1;" vertex="1" parent="TfP4_uzhoSNBbey_fxV2-129">
          <mxGeometry width="250" height="110" as="geometry" />
        </mxCell>
        <mxCell id="TfP4_uzhoSNBbey_fxV2-2" value="" style="shape=partialRectangle;collapsible=0;dropTarget=0;pointerEvents=0;fillColor=none;points=[[0,0.5],[1,0.5]];portConstraint=eastwest;top=0;left=0;right=0;bottom=1;" vertex="1" parent="TfP4_uzhoSNBbey_fxV2-1">
          <mxGeometry y="30" width="250" height="30" as="geometry" />
        </mxCell>
        <mxCell id="TfP4_uzhoSNBbey_fxV2-3" value="PK" style="shape=partialRectangle;overflow=hidden;connectable=0;fillColor=none;top=0;left=0;bottom=0;right=0;fontStyle=1;" vertex="1" parent="TfP4_uzhoSNBbey_fxV2-2">
          <mxGeometry width="30" height="30" as="geometry">
            <mxRectangle width="30" height="30" as="alternateBounds" />
          </mxGeometry>
        </mxCell>
        <mxCell id="TfP4_uzhoSNBbey_fxV2-4" value="page_id int NOT NULL" style="shape=partialRectangle;overflow=hidden;connectable=0;fillColor=#008a00;top=0;left=0;bottom=0;right=0;align=left;spacingLeft=6;fontStyle=5;fontColor=#ffffff;strokeColor=#005700;" vertex="1" parent="TfP4_uzhoSNBbey_fxV2-2">
          <mxGeometry x="30" width="220" height="30" as="geometry">
            <mxRectangle width="220" height="30" as="alternateBounds" />
          </mxGeometry>
        </mxCell>
        <mxCell id="TfP4_uzhoSNBbey_fxV2-5" value="" style="shape=partialRectangle;collapsible=0;dropTarget=0;pointerEvents=0;fillColor=none;points=[[0,0.5],[1,0.5]];portConstraint=eastwest;top=0;left=0;right=0;bottom=0;" vertex="1" parent="TfP4_uzhoSNBbey_fxV2-1">
          <mxGeometry y="60" width="250" height="30" as="geometry" />
        </mxCell>
        <mxCell id="TfP4_uzhoSNBbey_fxV2-6" value="" style="shape=partialRectangle;overflow=hidden;connectable=0;fillColor=none;top=0;left=0;bottom=0;right=0;" vertex="1" parent="TfP4_uzhoSNBbey_fxV2-5">
          <mxGeometry width="30" height="30" as="geometry">
            <mxRectangle width="30" height="30" as="alternateBounds" />
          </mxGeometry>
        </mxCell>
        <mxCell id="TfP4_uzhoSNBbey_fxV2-7" value="Sections[ ]" style="shape=partialRectangle;overflow=hidden;connectable=0;fillColor=none;top=0;left=0;bottom=1;right=0;align=left;spacingLeft=6;" vertex="1" parent="TfP4_uzhoSNBbey_fxV2-5">
          <mxGeometry x="30" width="220" height="30" as="geometry">
            <mxRectangle width="220" height="30" as="alternateBounds" />
          </mxGeometry>
        </mxCell>
        <mxCell id="TfP4_uzhoSNBbey_fxV2-116" value="Total: 5,343,565" style="text;html=1;strokeColor=none;fillColor=none;align=left;verticalAlign=middle;whiteSpace=wrap;rounded=0;fontSize=10;fontStyle=2" vertex="1" parent="TfP4_uzhoSNBbey_fxV2-129">
          <mxGeometry y="90" width="110" height="20" as="geometry" />
        </mxCell>
        <mxCell id="TfP4_uzhoSNBbey_fxV2-60" value="" style="group;strokeColor=default;strokeWidth=2;" vertex="1" connectable="0" parent="1">
          <mxGeometry x="270" y="370" width="250" height="140" as="geometry" />
        </mxCell>
        <mxCell id="TfP4_uzhoSNBbey_fxV2-61" value="statements.csv" style="shape=table;startSize=30;container=1;collapsible=1;childLayout=tableLayout;fixedRows=1;rowLines=0;fontStyle=1;align=center;resizeLast=1;" vertex="1" parent="TfP4_uzhoSNBbey_fxV2-60">
          <mxGeometry width="250" height="140" as="geometry">
            <mxRectangle width="90" height="30" as="alternateBounds" />
          </mxGeometry>
        </mxCell>
        <mxCell id="TfP4_uzhoSNBbey_fxV2-62" value="" style="shape=partialRectangle;collapsible=0;dropTarget=0;pointerEvents=0;fillColor=none;points=[[0,0.5],[1,0.5]];portConstraint=eastwest;top=0;left=0;right=0;bottom=1;" vertex="1" parent="TfP4_uzhoSNBbey_fxV2-61">
          <mxGeometry y="30" width="250" height="30" as="geometry" />
        </mxCell>
        <mxCell id="TfP4_uzhoSNBbey_fxV2-63" value="PK" style="shape=partialRectangle;overflow=hidden;connectable=0;fillColor=none;top=0;left=0;bottom=0;right=0;fontStyle=1;" vertex="1" parent="TfP4_uzhoSNBbey_fxV2-62">
          <mxGeometry width="30" height="30" as="geometry">
            <mxRectangle width="30" height="30" as="alternateBounds" />
          </mxGeometry>
        </mxCell>
        <mxCell id="TfP4_uzhoSNBbey_fxV2-64" value="source_item_id int NOT NULL" style="shape=partialRectangle;overflow=hidden;connectable=0;fillColor=#60a917;top=0;left=0;bottom=0;right=0;align=left;spacingLeft=6;fontStyle=5;fontColor=#ffffff;strokeColor=#2D7600;" vertex="1" parent="TfP4_uzhoSNBbey_fxV2-62">
          <mxGeometry x="30" width="220" height="30" as="geometry">
            <mxRectangle width="220" height="30" as="alternateBounds" />
          </mxGeometry>
        </mxCell>
        <mxCell id="TfP4_uzhoSNBbey_fxV2-65" value="" style="shape=partialRectangle;collapsible=0;dropTarget=0;pointerEvents=0;fillColor=none;points=[[0,0.5],[1,0.5]];portConstraint=eastwest;top=0;left=0;right=0;bottom=0;" vertex="1" parent="TfP4_uzhoSNBbey_fxV2-61">
          <mxGeometry y="60" width="250" height="30" as="geometry" />
        </mxCell>
        <mxCell id="TfP4_uzhoSNBbey_fxV2-66" value="FK1" style="shape=partialRectangle;overflow=hidden;connectable=0;fillColor=none;top=0;left=0;bottom=0;right=0;" vertex="1" parent="TfP4_uzhoSNBbey_fxV2-65">
          <mxGeometry width="30" height="30" as="geometry">
            <mxRectangle width="30" height="30" as="alternateBounds" />
          </mxGeometry>
        </mxCell>
        <mxCell id="TfP4_uzhoSNBbey_fxV2-67" value="edge_property_id int NOT NULL" style="shape=partialRectangle;overflow=hidden;connectable=0;fillColor=#1ba1e2;top=0;left=0;bottom=0;right=0;align=left;spacingLeft=6;fontStyle=5;fontColor=#ffffff;strokeColor=#006EAF;" vertex="1" parent="TfP4_uzhoSNBbey_fxV2-65">
          <mxGeometry x="30" width="220" height="30" as="geometry">
            <mxRectangle width="220" height="30" as="alternateBounds" />
          </mxGeometry>
        </mxCell>
        <mxCell id="TfP4_uzhoSNBbey_fxV2-68" value="target_item_id int NOT NULL" style="shape=partialRectangle;overflow=hidden;connectable=0;fillColor=#60a917;top=1;left=1;bottom=1;right=0;align=left;spacingLeft=6;strokeWidth=1;fontStyle=5;fontColor=#ffffff;strokeColor=#2D7600;" vertex="1" parent="TfP4_uzhoSNBbey_fxV2-60">
          <mxGeometry x="30" y="84" width="220" height="28" as="geometry">
            <mxRectangle width="220" height="30" as="alternateBounds" />
          </mxGeometry>
        </mxCell>
        <mxCell id="TfP4_uzhoSNBbey_fxV2-69" value="FK2" style="shape=partialRectangle;overflow=hidden;connectable=0;fillColor=none;top=0;left=0;bottom=0;right=0;" vertex="1" parent="TfP4_uzhoSNBbey_fxV2-60">
          <mxGeometry y="80.49866666666668" width="30" height="35" as="geometry">
            <mxRectangle width="30" height="30" as="alternateBounds" />
          </mxGeometry>
        </mxCell>
        <mxCell id="TfP4_uzhoSNBbey_fxV2-120" value="Total: 141,206,854" style="text;html=1;strokeColor=none;fillColor=none;align=left;verticalAlign=middle;whiteSpace=wrap;rounded=0;fontSize=10;fontStyle=2" vertex="1" parent="TfP4_uzhoSNBbey_fxV2-60">
          <mxGeometry y="115.5" width="110" height="20" as="geometry" />
        </mxCell>
        <mxCell id="TfP4_uzhoSNBbey_fxV2-105" value="" style="group;strokeColor=default;strokeWidth=2;" vertex="1" connectable="0" parent="1">
          <mxGeometry x="600" y="395" width="250" height="110" as="geometry" />
        </mxCell>
        <mxCell id="TfP4_uzhoSNBbey_fxV2-106" value="property_alieases.csv" style="shape=table;startSize=30;container=1;collapsible=1;childLayout=tableLayout;fixedRows=1;rowLines=0;fontStyle=1;align=center;resizeLast=1;" vertex="1" parent="TfP4_uzhoSNBbey_fxV2-105">
          <mxGeometry width="250" height="110.00000000000001" as="geometry">
            <mxRectangle width="90" height="30" as="alternateBounds" />
          </mxGeometry>
        </mxCell>
        <mxCell id="TfP4_uzhoSNBbey_fxV2-107" value="" style="shape=partialRectangle;collapsible=0;dropTarget=0;pointerEvents=0;fillColor=none;points=[[0,0.5],[1,0.5]];portConstraint=eastwest;top=0;left=0;right=0;bottom=1;" vertex="1" parent="TfP4_uzhoSNBbey_fxV2-106">
          <mxGeometry y="30" width="250" height="30" as="geometry" />
        </mxCell>
        <mxCell id="TfP4_uzhoSNBbey_fxV2-108" value="PK" style="shape=partialRectangle;overflow=hidden;connectable=0;fillColor=none;top=0;left=0;bottom=0;right=0;fontStyle=1;" vertex="1" parent="TfP4_uzhoSNBbey_fxV2-107">
          <mxGeometry width="30" height="30" as="geometry">
            <mxRectangle width="30" height="30" as="alternateBounds" />
          </mxGeometry>
        </mxCell>
        <mxCell id="TfP4_uzhoSNBbey_fxV2-109" value="property_id int NOT NULL" style="shape=partialRectangle;overflow=hidden;connectable=0;fillColor=#1ba1e2;top=0;left=0;bottom=0;right=0;align=left;spacingLeft=6;fontStyle=5;fontColor=#ffffff;strokeColor=#006EAF;" vertex="1" parent="TfP4_uzhoSNBbey_fxV2-107">
          <mxGeometry x="30" width="220" height="30" as="geometry">
            <mxRectangle width="220" height="30" as="alternateBounds" />
          </mxGeometry>
        </mxCell>
        <mxCell id="TfP4_uzhoSNBbey_fxV2-110" value="" style="shape=partialRectangle;collapsible=0;dropTarget=0;pointerEvents=0;fillColor=none;points=[[0,0.5],[1,0.5]];portConstraint=eastwest;top=0;left=0;right=0;bottom=0;" vertex="1" parent="TfP4_uzhoSNBbey_fxV2-106">
          <mxGeometry y="60" width="250" height="30" as="geometry" />
        </mxCell>
        <mxCell id="TfP4_uzhoSNBbey_fxV2-111" value="" style="shape=partialRectangle;overflow=hidden;connectable=0;fillColor=none;top=0;left=0;bottom=0;right=0;" vertex="1" parent="TfP4_uzhoSNBbey_fxV2-110">
          <mxGeometry width="30" height="30" as="geometry">
            <mxRectangle width="30" height="30" as="alternateBounds" />
          </mxGeometry>
        </mxCell>
        <mxCell id="TfP4_uzhoSNBbey_fxV2-112" value="en_alias string" style="shape=partialRectangle;overflow=hidden;connectable=0;fillColor=none;top=0;left=0;bottom=1;right=0;align=left;spacingLeft=6;fontStyle=4;" vertex="1" parent="TfP4_uzhoSNBbey_fxV2-110">
          <mxGeometry x="30" width="220" height="30" as="geometry">
            <mxRectangle width="220" height="30" as="alternateBounds" />
          </mxGeometry>
        </mxCell>
        <mxCell id="TfP4_uzhoSNBbey_fxV2-122" value="Total: 9,005" style="text;html=1;strokeColor=none;fillColor=none;align=left;verticalAlign=middle;whiteSpace=wrap;rounded=0;fontSize=10;fontStyle=2" vertex="1" parent="TfP4_uzhoSNBbey_fxV2-105">
          <mxGeometry y="90" width="110" height="20" as="geometry" />
        </mxCell>
        <mxCell id="TfP4_uzhoSNBbey_fxV2-131" value="" style="group" vertex="1" connectable="0" parent="1">
          <mxGeometry x="600" y="230" width="250" height="140" as="geometry" />
        </mxCell>
        <mxCell id="TfP4_uzhoSNBbey_fxV2-77" value="" style="group;strokeColor=default;strokeWidth=2;container=0;" vertex="1" connectable="0" parent="TfP4_uzhoSNBbey_fxV2-131">
          <mxGeometry width="250" height="140" as="geometry" />
        </mxCell>
        <mxCell id="TfP4_uzhoSNBbey_fxV2-121" value="Total: 6,986" style="text;html=1;strokeColor=none;fillColor=none;align=left;verticalAlign=middle;whiteSpace=wrap;rounded=0;fontSize=10;fontStyle=2" vertex="1" parent="TfP4_uzhoSNBbey_fxV2-131">
          <mxGeometry y="120" width="110" height="20" as="geometry" />
        </mxCell>
        <mxCell id="TfP4_uzhoSNBbey_fxV2-78" value="property.csv" style="shape=table;startSize=30;container=1;collapsible=1;childLayout=tableLayout;fixedRows=1;rowLines=0;fontStyle=1;align=center;resizeLast=1;" vertex="1" parent="TfP4_uzhoSNBbey_fxV2-131">
          <mxGeometry width="250" height="140" as="geometry">
            <mxRectangle width="90" height="30" as="alternateBounds" />
          </mxGeometry>
        </mxCell>
        <mxCell id="TfP4_uzhoSNBbey_fxV2-79" value="" style="shape=partialRectangle;collapsible=0;dropTarget=0;pointerEvents=0;fillColor=none;points=[[0,0.5],[1,0.5]];portConstraint=eastwest;top=0;left=0;right=0;bottom=1;" vertex="1" parent="TfP4_uzhoSNBbey_fxV2-78">
          <mxGeometry y="30" width="250" height="30" as="geometry" />
        </mxCell>
        <mxCell id="TfP4_uzhoSNBbey_fxV2-80" value="PK" style="shape=partialRectangle;overflow=hidden;connectable=0;fillColor=none;top=0;left=0;bottom=0;right=0;fontStyle=1;" vertex="1" parent="TfP4_uzhoSNBbey_fxV2-79">
          <mxGeometry width="30" height="30" as="geometry">
            <mxRectangle width="30" height="30" as="alternateBounds" />
          </mxGeometry>
        </mxCell>
        <mxCell id="TfP4_uzhoSNBbey_fxV2-81" value="property_id int NOT NULL" style="shape=partialRectangle;overflow=hidden;connectable=0;fillColor=#1ba1e2;top=0;left=0;bottom=0;right=0;align=left;spacingLeft=6;fontStyle=5;fontColor=#ffffff;strokeColor=#006EAF;" vertex="1" parent="TfP4_uzhoSNBbey_fxV2-79">
          <mxGeometry x="30" width="220" height="30" as="geometry">
            <mxRectangle width="220" height="30" as="alternateBounds" />
          </mxGeometry>
        </mxCell>
        <mxCell id="TfP4_uzhoSNBbey_fxV2-82" value="" style="shape=partialRectangle;collapsible=0;dropTarget=0;pointerEvents=0;fillColor=none;points=[[0,0.5],[1,0.5]];portConstraint=eastwest;top=0;left=0;right=0;bottom=0;" vertex="1" parent="TfP4_uzhoSNBbey_fxV2-78">
          <mxGeometry y="60" width="250" height="30" as="geometry" />
        </mxCell>
        <mxCell id="TfP4_uzhoSNBbey_fxV2-83" value="" style="shape=partialRectangle;overflow=hidden;connectable=0;fillColor=none;top=0;left=0;bottom=0;right=0;" vertex="1" parent="TfP4_uzhoSNBbey_fxV2-82">
          <mxGeometry width="30" height="30" as="geometry">
            <mxRectangle width="30" height="30" as="alternateBounds" />
          </mxGeometry>
        </mxCell>
        <mxCell id="TfP4_uzhoSNBbey_fxV2-84" value="en_label string" style="shape=partialRectangle;overflow=hidden;connectable=0;fillColor=none;top=0;left=0;bottom=0;right=0;align=left;spacingLeft=6;fontStyle=4;" vertex="1" parent="TfP4_uzhoSNBbey_fxV2-82">
          <mxGeometry x="30" width="220" height="30" as="geometry">
            <mxRectangle width="220" height="30" as="alternateBounds" />
          </mxGeometry>
        </mxCell>
        <mxCell id="TfP4_uzhoSNBbey_fxV2-85" value="en_description string" style="shape=partialRectangle;overflow=hidden;connectable=0;fillColor=none;top=1;left=1;bottom=1;right=0;align=left;spacingLeft=6;strokeWidth=1;fontStyle=4;" vertex="1" parent="TfP4_uzhoSNBbey_fxV2-131">
          <mxGeometry x="30" y="90" width="220" height="30" as="geometry">
            <mxRectangle width="220" height="30" as="alternateBounds" />
          </mxGeometry>
        </mxCell>
        <mxCell id="TfP4_uzhoSNBbey_fxV2-132" value="" style="endArrow=classic;startArrow=classic;html=1;rounded=0;exitX=0.5;exitY=1;exitDx=0;exitDy=0;entryX=0.5;entryY=0;entryDx=0;entryDy=0;strokeWidth=2;" edge="1" parent="1" source="TfP4_uzhoSNBbey_fxV2-34" target="TfP4_uzhoSNBbey_fxV2-50">
          <mxGeometry width="50" height="50" relative="1" as="geometry">
            <mxPoint x="80" y="210" as="sourcePoint" />
            <mxPoint x="190" y="180" as="targetPoint" />
          </mxGeometry>
        </mxCell>
        <mxCell id="TfP4_uzhoSNBbey_fxV2-134" value="" style="endArrow=classic;startArrow=classic;html=1;rounded=0;entryX=0;entryY=0.5;entryDx=0;entryDy=0;exitX=1;exitY=0.5;exitDx=0;exitDy=0;strokeWidth=2;" edge="1" parent="1" source="TfP4_uzhoSNBbey_fxV2-35" target="TfP4_uzhoSNBbey_fxV2-12">
          <mxGeometry width="50" height="50" relative="1" as="geometry">
            <mxPoint x="340" y="330" as="sourcePoint" />
            <mxPoint x="390" y="280" as="targetPoint" />
            <Array as="points">
              <mxPoint x="290" y="55" />
              <mxPoint x="290" y="84" />
            </Array>
          </mxGeometry>
        </mxCell>
        <mxCell id="TfP4_uzhoSNBbey_fxV2-135" style="edgeStyle=orthogonalEdgeStyle;rounded=0;orthogonalLoop=1;jettySize=auto;html=1;exitX=1;exitY=0.5;exitDx=0;exitDy=0;entryX=0;entryY=0.5;entryDx=0;entryDy=0;startArrow=classic;startFill=1;strokeWidth=2;" edge="1" parent="1" source="TfP4_uzhoSNBbey_fxV2-9" target="TfP4_uzhoSNBbey_fxV2-2">
          <mxGeometry relative="1" as="geometry" />
        </mxCell>
        <mxCell id="TfP4_uzhoSNBbey_fxV2-149" style="edgeStyle=orthogonalEdgeStyle;rounded=0;orthogonalLoop=1;jettySize=auto;html=1;exitX=0.25;exitY=1;exitDx=0;exitDy=0;entryX=0;entryY=0.5;entryDx=0;entryDy=0;fillColor=#60a917;strokeColor=#2D7600;strokeWidth=2;" edge="1" parent="1" source="TfP4_uzhoSNBbey_fxV2-104" target="TfP4_uzhoSNBbey_fxV2-62">
          <mxGeometry relative="1" as="geometry">
            <Array as="points">
              <mxPoint x="315" y="360" />
              <mxPoint x="240" y="360" />
              <mxPoint x="240" y="415" />
            </Array>
          </mxGeometry>
        </mxCell>
        <mxCell id="TfP4_uzhoSNBbey_fxV2-104" value="&lt;h1 style=&quot;&quot;&gt;&lt;font style=&quot;font-size: 12px;&quot;&gt;Statements: &lt;font style=&quot;font-size: 12px;&quot; color=&quot;#ff0000&quot;&gt;Albert Einstein&lt;/font&gt;&#39;s &lt;font style=&quot;font-size: 12px;&quot; color=&quot;#00ff00&quot;&gt;Profession&lt;/font&gt; is &lt;font style=&quot;font-size: 12px;&quot; color=&quot;#0000ff&quot;&gt;Physicist&lt;/font&gt;&lt;/font&gt;&lt;/h1&gt;&lt;p style=&quot;font-size: 10px;&quot;&gt;Where &lt;font style=&quot;font-size: 10px;&quot; color=&quot;#ff0000&quot;&gt;Albert Einstein&lt;/font&gt; is stored as an item (and will likely have a page, and thusly a L.A.T. record), both &lt;font style=&quot;font-size: 10px;&quot; color=&quot;#00ff00&quot;&gt;Profession&lt;/font&gt; and &lt;font style=&quot;font-size: 10px;&quot; color=&quot;#0000ff&quot;&gt;Physicist&lt;/font&gt; won&#39;t necessarily have a page, since other pages (&lt;font style=&quot;font-size: 10px;&quot; color=&quot;#0000ff&quot;&gt;Physicists&lt;/font&gt;) can have &lt;font style=&quot;font-size: 10px;&quot; color=&quot;#00ff00&quot;&gt;Professions&lt;/font&gt;&lt;/p&gt;" style="text;html=1;spacing=5;spacingTop=-20;whiteSpace=wrap;overflow=hidden;rounded=0;strokeWidth=2;fillStyle=dashed;strokeColor=#2D7600;fillColor=none;fontColor=#ffffff;" vertex="1" parent="1">
          <mxGeometry x="230" y="230" width="340" height="110" as="geometry" />
        </mxCell>
        <mxCell id="TfP4_uzhoSNBbey_fxV2-141" value="" style="group" vertex="1" connectable="0" parent="1">
          <mxGeometry x="10" y="10" width="250" height="140" as="geometry" />
        </mxCell>
        <mxCell id="TfP4_uzhoSNBbey_fxV2-33" value="" style="group;strokeColor=default;strokeWidth=2;container=0;" vertex="1" connectable="0" parent="TfP4_uzhoSNBbey_fxV2-141">
          <mxGeometry width="250" height="140" as="geometry" />
        </mxCell>
        <mxCell id="TfP4_uzhoSNBbey_fxV2-34" value="item.csv" style="shape=table;startSize=30;container=1;collapsible=1;childLayout=tableLayout;fixedRows=1;rowLines=0;fontStyle=1;align=center;resizeLast=1;" vertex="1" parent="TfP4_uzhoSNBbey_fxV2-141">
          <mxGeometry width="250" height="140" as="geometry">
            <mxRectangle width="90" height="30" as="alternateBounds" />
          </mxGeometry>
        </mxCell>
        <mxCell id="TfP4_uzhoSNBbey_fxV2-35" value="" style="shape=partialRectangle;collapsible=0;dropTarget=0;pointerEvents=0;fillColor=none;points=[[0,0.5],[1,0.5]];portConstraint=eastwest;top=0;left=0;right=0;bottom=1;" vertex="1" parent="TfP4_uzhoSNBbey_fxV2-34">
          <mxGeometry y="30" width="250" height="30" as="geometry" />
        </mxCell>
        <mxCell id="TfP4_uzhoSNBbey_fxV2-36" value="PK" style="shape=partialRectangle;overflow=hidden;connectable=0;fillColor=none;top=0;left=0;bottom=0;right=0;fontStyle=1;" vertex="1" parent="TfP4_uzhoSNBbey_fxV2-35">
          <mxGeometry width="30" height="30" as="geometry">
            <mxRectangle width="30" height="30" as="alternateBounds" />
          </mxGeometry>
        </mxCell>
        <mxCell id="TfP4_uzhoSNBbey_fxV2-37" value="item_id int NOT NULL" style="shape=partialRectangle;overflow=hidden;connectable=0;fillColor=#60a917;top=0;left=0;bottom=0;right=0;align=left;spacingLeft=6;fontStyle=5;fontColor=#ffffff;strokeColor=#2D7600;" vertex="1" parent="TfP4_uzhoSNBbey_fxV2-35">
          <mxGeometry x="30" width="220" height="30" as="geometry">
            <mxRectangle width="220" height="30" as="alternateBounds" />
          </mxGeometry>
        </mxCell>
        <mxCell id="TfP4_uzhoSNBbey_fxV2-38" value="" style="shape=partialRectangle;collapsible=0;dropTarget=0;pointerEvents=0;fillColor=none;points=[[0,0.5],[1,0.5]];portConstraint=eastwest;top=0;left=0;right=0;bottom=0;" vertex="1" parent="TfP4_uzhoSNBbey_fxV2-34">
          <mxGeometry y="60" width="250" height="30" as="geometry" />
        </mxCell>
        <mxCell id="TfP4_uzhoSNBbey_fxV2-39" value="" style="shape=partialRectangle;overflow=hidden;connectable=0;fillColor=none;top=0;left=0;bottom=0;right=0;" vertex="1" parent="TfP4_uzhoSNBbey_fxV2-38">
          <mxGeometry width="30" height="30" as="geometry">
            <mxRectangle width="30" height="30" as="alternateBounds" />
          </mxGeometry>
        </mxCell>
        <mxCell id="TfP4_uzhoSNBbey_fxV2-40" value="en_label string" style="shape=partialRectangle;overflow=hidden;connectable=0;fillColor=none;top=0;left=0;bottom=0;right=0;align=left;spacingLeft=6;" vertex="1" parent="TfP4_uzhoSNBbey_fxV2-38">
          <mxGeometry x="30" width="220" height="30" as="geometry">
            <mxRectangle width="220" height="30" as="alternateBounds" />
          </mxGeometry>
        </mxCell>
        <mxCell id="TfP4_uzhoSNBbey_fxV2-44" value="en_description string" style="shape=partialRectangle;overflow=hidden;connectable=0;fillColor=none;top=1;left=1;bottom=1;right=0;align=left;spacingLeft=6;strokeWidth=1;" vertex="1" parent="TfP4_uzhoSNBbey_fxV2-141">
          <mxGeometry x="30" y="84" width="220" height="28" as="geometry">
            <mxRectangle width="220" height="30" as="alternateBounds" />
          </mxGeometry>
        </mxCell>
        <mxCell id="TfP4_uzhoSNBbey_fxV2-118" value="Total: 51,450,317" style="text;html=1;strokeColor=none;fillColor=none;align=left;verticalAlign=middle;whiteSpace=wrap;rounded=0;fontSize=10;fontStyle=2" vertex="1" parent="TfP4_uzhoSNBbey_fxV2-141">
          <mxGeometry y="119" width="110" height="18.666666666666668" as="geometry" />
        </mxCell>
        <mxCell id="TfP4_uzhoSNBbey_fxV2-146" value="" style="endArrow=classic;startArrow=classic;html=1;rounded=0;entryX=1;entryY=0.5;entryDx=0;entryDy=0;exitX=0.25;exitY=0;exitDx=0;exitDy=0;fillColor=#60a917;strokeColor=#2D7600;strokeWidth=2;" edge="1" parent="1" source="TfP4_uzhoSNBbey_fxV2-104" target="TfP4_uzhoSNBbey_fxV2-35">
          <mxGeometry width="50" height="50" relative="1" as="geometry">
            <mxPoint x="250" y="200" as="sourcePoint" />
            <mxPoint x="300" y="150" as="targetPoint" />
            <Array as="points">
              <mxPoint x="315" y="200" />
              <mxPoint x="280" y="200" />
              <mxPoint x="280" y="55" />
            </Array>
          </mxGeometry>
        </mxCell>
        <mxCell id="TfP4_uzhoSNBbey_fxV2-150" style="edgeStyle=orthogonalEdgeStyle;rounded=0;orthogonalLoop=1;jettySize=auto;html=1;exitX=0;exitY=0.75;exitDx=0;exitDy=0;entryX=0.25;entryY=1;entryDx=0;entryDy=0;startArrow=classic;startFill=1;fillColor=#60a917;strokeColor=#2D7600;strokeWidth=2;" edge="1" parent="1" source="TfP4_uzhoSNBbey_fxV2-61" target="TfP4_uzhoSNBbey_fxV2-104">
          <mxGeometry relative="1" as="geometry">
            <Array as="points">
              <mxPoint x="240" y="475" />
              <mxPoint x="240" y="360" />
              <mxPoint x="315" y="360" />
            </Array>
          </mxGeometry>
        </mxCell>
        <mxCell id="TfP4_uzhoSNBbey_fxV2-152" style="edgeStyle=orthogonalEdgeStyle;rounded=0;orthogonalLoop=1;jettySize=auto;html=1;exitX=1;exitY=0.5;exitDx=0;exitDy=0;entryX=0;entryY=0.5;entryDx=0;entryDy=0;fillColor=#1ba1e2;strokeColor=#006EAF;strokeWidth=2;" edge="1" parent="1" source="TfP4_uzhoSNBbey_fxV2-65" target="TfP4_uzhoSNBbey_fxV2-79">
          <mxGeometry relative="1" as="geometry">
            <Array as="points">
              <mxPoint x="580" y="445" />
              <mxPoint x="580" y="275" />
            </Array>
          </mxGeometry>
        </mxCell>
        <mxCell id="TfP4_uzhoSNBbey_fxV2-153" style="edgeStyle=orthogonalEdgeStyle;rounded=0;orthogonalLoop=1;jettySize=auto;html=1;exitX=0;exitY=0.5;exitDx=0;exitDy=0;entryX=0;entryY=0.5;entryDx=0;entryDy=0;fillColor=#1ba1e2;strokeColor=#006EAF;strokeWidth=2;" edge="1" parent="1" source="TfP4_uzhoSNBbey_fxV2-79" target="TfP4_uzhoSNBbey_fxV2-107">
          <mxGeometry relative="1" as="geometry">
            <Array as="points">
              <mxPoint x="580" y="275" />
              <mxPoint x="580" y="440" />
            </Array>
          </mxGeometry>
        </mxCell>
        <mxCell id="TfP4_uzhoSNBbey_fxV2-154" value="" style="endArrow=none;dashed=1;html=1;rounded=0;fillColor=#e3c800;strokeColor=#FFFFFF;strokeWidth=4;" edge="1" parent="1">
          <mxGeometry width="50" height="50" relative="1" as="geometry">
            <mxPoint x="10" y="360" as="sourcePoint" />
            <mxPoint x="220" y="360" as="targetPoint" />
          </mxGeometry>
        </mxCell>
        <mxCell id="TfP4_uzhoSNBbey_fxV2-155" value="" style="endArrow=none;dashed=1;html=1;rounded=0;entryX=0;entryY=0;entryDx=0;entryDy=0;fillColor=#e3c800;strokeColor=#FFFFFF;strokeWidth=4;" edge="1" parent="1" target="TfP4_uzhoSNBbey_fxV2-160">
          <mxGeometry width="50" height="50" relative="1" as="geometry">
            <mxPoint x="220" y="360" as="sourcePoint" />
            <mxPoint x="270" y="310" as="targetPoint" />
          </mxGeometry>
        </mxCell>
        <mxCell id="TfP4_uzhoSNBbey_fxV2-156" value="" style="endArrow=none;dashed=1;html=1;rounded=0;fillColor=#e3c800;strokeColor=#FFFFFF;strokeWidth=4;" edge="1" parent="1">
          <mxGeometry width="50" height="50" relative="1" as="geometry">
            <mxPoint x="220" y="210" as="sourcePoint" />
            <mxPoint x="580" y="210" as="targetPoint" />
          </mxGeometry>
        </mxCell>
        <mxCell id="TfP4_uzhoSNBbey_fxV2-157" value="" style="endArrow=none;dashed=1;html=1;rounded=0;fillColor=#e3c800;strokeColor=#FFFFFF;strokeWidth=4;" edge="1" parent="1">
          <mxGeometry width="50" height="50" relative="1" as="geometry">
            <mxPoint x="580" y="210" as="sourcePoint" />
            <mxPoint x="580" y="10" as="targetPoint" />
          </mxGeometry>
        </mxCell>
        <mxCell id="TfP4_uzhoSNBbey_fxV2-162" value="" style="rounded=0;whiteSpace=wrap;html=1;strokeColor=none;fillColor=#e3c800;fontColor=#000000;opacity=20;fillStyle=hatch;strokeWidth=6;" vertex="1" parent="1">
          <mxGeometry y="360" width="220" height="160" as="geometry" />
        </mxCell>
        <mxCell id="TfP4_uzhoSNBbey_fxV2-176" value="GS-EDGE" style="text;html=1;strokeColor=none;fillColor=#e3c800;align=center;verticalAlign=middle;whiteSpace=wrap;rounded=0;fontColor=#000000;" vertex="1" parent="1">
          <mxGeometry x="750" y="170" width="60" height="30" as="geometry" />
        </mxCell>
        <mxCell id="TfP4_uzhoSNBbey_fxV2-177" value="GS-NODE" style="text;html=1;strokeColor=none;fillColor=#fa6800;align=center;verticalAlign=middle;whiteSpace=wrap;rounded=0;fontColor=#000000;" vertex="1" parent="1">
          <mxGeometry x="170" y="170" width="60" height="30" as="geometry" />
        </mxCell>
      </root>
    </mxGraphModel>
  </diagram>
</mxfile>
